<?xml version="1.0" encoding="UTF-8" standalone="no"?>
<!-- Created with Inkscape (http://www.inkscape.org/) -->

<svg
   xmlns:dc="http://purl.org/dc/elements/1.1/"
   xmlns:cc="http://creativecommons.org/ns#"
   xmlns:rdf="http://www.w3.org/1999/02/22-rdf-syntax-ns#"
   xmlns:svg="http://www.w3.org/2000/svg"
   xmlns="http://www.w3.org/2000/svg"
   xmlns:xlink="http://www.w3.org/1999/xlink"
   xmlns:sodipodi="http://sodipodi.sourceforge.net/DTD/sodipodi-0.dtd"
   xmlns:inkscape="http://www.inkscape.org/namespaces/inkscape"
   width="48"
   height="48"
   id="svg2"
   version="1.1"
   inkscape:version="0.48.4 r9939"
   sodipodi:docname="atom.svg">
  <defs
     id="defs4">
    <linearGradient
       id="linearGradient3767">
      <stop
         style="stop-color:#bdbdbd;stop-opacity:1;"
         offset="0"
         id="stop3769" />
      <stop
         style="stop-color:#dcdcdc;stop-opacity:1;"
         offset="1"
         id="stop3771" />
    </linearGradient>
    <linearGradient
       inkscape:collect="always"
       xlink:href="#linearGradient3767"
       id="linearGradient3773"
       x1="24"
       y1="1050.3622"
       x2="24"
       y2="1006.3622"
       gradientUnits="userSpaceOnUse" />
  </defs>
  <sodipodi:namedview
     id="base"
     pagecolor="#ffffff"
     bordercolor="#666666"
     borderopacity="1.0"
     inkscape:pageopacity="0.0"
     inkscape:pageshadow="2"
     inkscape:zoom="16.381307"
     inkscape:cx="25.899317"
     inkscape:cy="21.778595"
     inkscape:document-units="px"
     inkscape:current-layer="layer1"
     showgrid="true"
     inkscape:snap-bbox="true"
     inkscape:window-width="1366"
     inkscape:window-height="712"
     inkscape:window-x="0"
     inkscape:window-y="27"
     inkscape:window-maximized="1">
    <inkscape:grid
       type="xygrid"
       id="grid2985"
       empspacing="6"
       visible="true"
       enabled="true"
       snapvisiblegridlinesonly="true" />
  </sodipodi:namedview>
  <metadata
     id="metadata7">
    <rdf:RDF>
      <cc:Work
         rdf:about="">
        <dc:format>image/svg+xml</dc:format>
        <dc:type
           rdf:resource="http://purl.org/dc/dcmitype/StillImage" />
        <dc:title></dc:title>
      </cc:Work>
    </rdf:RDF>
  </metadata>
  <g
     inkscape:label="Layer 1"
     inkscape:groupmode="layer"
     id="layer1"
     transform="translate(0,-1004.3622)">
    <path
       id="path3788"
       d="m 24,1051.1116 c -21.2715315,0 -23.66257505,-0.089 -23.9375,-15.4063 0.328125,14.4033 2.9375,14.4063 23.9375,14.4063 21,0 23.609375,0 23.9375,-14.4063 -0.274925,15.3174 -2.665968,15.4063 -23.9375,15.4063 z"
       style="opacity:0.20000000000000001;fill:#ffffff;fill-opacity:1;stroke:none"
       inkscape:connector-curvature="0" />
    <path
       style="fill:url(#linearGradient3773);fill-opacity:1;stroke:none"
       d="m 24,1006.3622 c -24,0 -24,0 -24,22 0,22 0,22 24,22 24,0 24,0 24,-22 0,-22 0,-22 -24,-22 z"
       id="path3757"
       inkscape:connector-curvature="0"
       sodipodi:nodetypes="zzzzz" />
    <path
       style="fill:#000000;fill-opacity:1;stroke:none;opacity:0.20000000000000001"
       d="M 24 2 C 2.7284685 2 0.33742495 2.0888436 0.0625 17.40625 C 0.390625 3.0029297 3 3 24 3 C 45 3 47.609375 3.0029297 47.9375 17.40625 C 47.662575 2.0888436 45.271532 2 24 2 z "
       transform="translate(0,1004.3622)"
       id="path3770" />
    <path
       sodipodi:type="arc"
       style="opacity:1;fill:#ffffff;stroke:none;stroke-width:2;stroke-linecap:round;stroke-linejoin:round;stroke-miterlimit:4;stroke-opacity:1;stroke-dasharray:none;stroke-dashoffset:0;fill-opacity:1"
       id="path3797"
       sodipodi:cx="24"
       sodipodi:cy="24"
       sodipodi:rx="2"
       sodipodi:ry="2"
       d="m 26,24 c 0,1.104569 -0.895431,2 -2,2 -1.104569,0 -2,-0.895431 -2,-2 0,-1.104569 0.895431,-2 2,-2 1.104569,0 2,0.895431 2,2 z"
       transform="translate(0,1004.3622)" />
    <path
       inkscape:connector-curvature="0"
       d="m 21.605669,1015.0662 c -1.617776,-1.3423 -3.13505,-2.0631 -4.354072,-1.9717 -0.324564,0.024 -0.624735,0.1044 -0.903676,0.2465 -2.975374,1.516 -2.024856,9.3567 2.127745,17.5066 4.152601,8.15 9.930755,13.5268 12.906129,12.0107 2.861373,-1.4579 2.089078,-8.764 -1.667691,-16.5701"
       style="fill:none;stroke:#66595c;stroke-width:1.31443715;stroke-linecap:round"
       id="path3063" />
    <path
       inkscape:connector-curvature="0"
       d="m 35.009852,1021.093 c 0.555396,-2.8268 0.244803,-4.9721 -1.067981,-5.8246 -0.437595,-0.2842 -0.962228,-0.4085 -1.552679,-0.3861 -3.188432,0.121 -8.33309,4.5112 -12.536444,10.9837 -4.981753,7.6713 -6.752133,15.3594 -3.951526,17.1781 1.329407,0.8634 3.447807,0.2513 5.84103,-1.4541"
       style="fill:none;stroke:#66595c;stroke-width:1.31443715000000005;stroke-linecap:round;opacity:0.4"
       id="path3059-3" />
    <path
       inkscape:connector-curvature="0"
       d="m 37.564789,1033.6377 c 2.364506,-0.9173 3.81845,-2.1728 3.894021,-3.6147 0.174767,-3.3348 -7.082515,-6.4221 -16.21687,-6.9008 -0.856345,-0.045 -1.698407,-0.069 -2.522076,-0.066 -7.962133,0.027 -14.1771968,2.2109 -14.3355799,5.233 -0.07542,1.4391 1.2356983,2.8346 3.4832589,3.9926"
       style="fill:none;stroke:#66595c;stroke-width:1.31443715000000005;stroke-linecap:round;opacity:0.4"
       id="path3061-0" />
    <path
       inkscape:connector-curvature="0"
       d="m 27,1029.3905 a 1.971656,1.971656 0 0 1 -3.943312,0 1.971656,1.971656 0 1 1 3.943312,0 z"
       style="fill:#66595c;opacity:0.4"
       id="path3065-2" />
    <path
       inkscape:connector-curvature="0"
       d="m 33.953164,1020.0364 c 0.555396,-2.8268 0.244803,-4.9721 -1.067981,-5.8246 -0.437595,-0.2842 -0.962228,-0.4085 -1.552679,-0.3861 -3.188432,0.121 -8.33309,4.5112 -12.536444,10.9837 -4.981753,7.6713 -6.752133,15.3594 -3.951526,17.1781 1.329407,0.8634 3.447807,0.2513 5.84103,-1.4541"
       style="fill:none;stroke:#66595c;stroke-width:1.31443715;stroke-linecap:round"
       id="path3059" />
    <path
       inkscape:connector-curvature="0"
       d="m 36.508101,1032.5811 c 2.364506,-0.9173 3.81845,-2.1728 3.894021,-3.6147 0.174767,-3.3348 -7.082515,-6.4221 -16.21687,-6.9008 -0.856345,-0.045 -1.698407,-0.069 -2.522076,-0.066 -7.962133,0.027 -14.1771968,2.2109 -14.3355799,5.233 -0.07542,1.4391 1.2356983,2.8346 3.4832589,3.9926"
       style="fill:none;stroke:#66595c;stroke-width:1.31443715;stroke-linecap:round"
       id="path3061" />
    <path
       inkscape:connector-curvature="0"
       d="m 25.943312,1028.3339 a 1.971656,1.971656 0 0 1 -3.943312,0 1.971656,1.971656 0 1 1 3.943312,0 z"
       style="fill:#66595c"
       id="path3065" />
    <path
       inkscape:connector-curvature="0"
       d="m 22.662357,1016.1228 c -1.617776,-1.3423 -3.13505,-2.0631 -4.354072,-1.9717 -0.324564,0.024 -0.624735,0.1044 -0.903676,0.2465 -2.975374,1.516 -2.024856,9.3567 2.127745,17.5066 4.152601,8.15 9.930755,13.5268 12.906129,12.0107 2.861373,-1.4579 2.089078,-8.764 -1.667691,-16.5701"
       style="fill:none;stroke:#66595c;stroke-width:1.31443715000000005;stroke-linecap:round;opacity:0.4"
       id="path3063-0" />
  </g>
</svg>
